<svg width="64" height="64" viewBox="0 0 64 64" fill="none" xmlns="http://www.w3.org/2000/svg">
<rect x="0.25" y="0.25" width="63.5" height="63.5" fill="white" fill-opacity="0.05"/>
<path d="M32 40.975L30.975 40.05C29.2083 38.4333 27.75 37.0375 26.6 35.8625C25.45 34.6875 24.5333 33.6375 23.85 32.7125C23.1667 31.7875 22.6875 30.95 22.4125 30.2C22.1375 29.45 22 28.6917 22 27.925C22 26.425 22.5042 25.1708 23.5125 24.1625C24.5208 23.1542 25.7667 22.65 27.25 22.65C28.2 22.65 29.0792 22.875 29.8875 23.325C30.6958 23.775 31.4 24.425 32 25.275C32.7 24.375 33.4417 23.7125 34.225 23.2875C35.0083 22.8625 35.85 22.65 36.75 22.65C38.2333 22.65 39.4792 23.1542 40.4875 24.1625C41.4958 25.1708 42 26.425 42 27.925C42 28.6917 41.8625 29.45 41.5875 30.2C41.3125 30.95 40.8333 31.7875 40.15 32.7125C39.4667 33.6375 38.55 34.6875 37.4 35.8625C36.25 37.0375 34.7917 38.4333 33.025 40.05L32 40.975ZM32 39C33.6833 37.45 35.0708 36.1208 36.1625 35.0125C37.2542 33.9042 38.1208 32.9333 38.7625 32.1C39.4042 31.2667 39.8542 30.525 40.1125 29.875C40.3708 29.225 40.5 28.575 40.5 27.925C40.5 26.825 40.15 25.9208 39.45 25.2125C38.75 24.5042 37.85 24.15 36.75 24.15C35.9 24.15 35.1083 24.4125 34.375 24.9375C33.6417 25.4625 33.05 26.2 32.6 27.15H31.375C30.9417 26.2167 30.3583 25.4833 29.625 24.95C28.8917 24.4167 28.1 24.15 27.25 24.15C26.15 24.15 25.25 24.5042 24.55 25.2125C23.85 25.9208 23.5 26.825 23.5 27.925C23.5 28.575 23.6292 29.2292 23.8875 29.8875C24.1458 30.5458 24.5958 31.2958 25.2375 32.1375C25.8792 32.9792 26.75 33.95 27.85 35.05C28.95 36.15 30.3333 37.4667 32 39Z" fill="#EBEBEB"/>
<rect x="0.25" y="0.25" width="63.5" height="63.5" stroke="#EBEBEB" stroke-width="0.5"/>
</svg>
